<svg width="826" height="288" viewBox="0 0 826 288" fill="none" xmlns="http://www.w3.org/2000/svg">
<path d="M821 23H5C2.23858 23 0 25.2386 0 28V259C0 261.761 2.23858 264 5 264H821C823.761 264 826 261.761 826 259V28C826 25.2386 823.761 23 821 23Z" fill="white"/>
<path d="M14.375 19.125C16.2083 19.875 17.625 21.0833 18.625 22.75C19.7083 24.3333 20.25 26.25 20.25 28.5C20.25 31.5 19.2917 33.9583 17.375 35.875C15.4583 37.7917 13.0833 38.75 10.25 38.75C7.25 38.75 4.79167 37.7917 2.875 35.875C0.958334 33.9583 0 31.5 0 28.5C0 27 0.166667 25.5417 0.5 24.125C0.916667 22.7083 1.66667 20.5833 2.75 17.75L9.375 0H19.375L14.375 19.125ZM40.875 19.125C42.7083 19.875 44.125 21.0833 45.125 22.75C46.2083 24.3333 46.75 26.25 46.75 28.5C46.75 31.5 45.7917 33.9583 43.875 35.875C41.9583 37.7917 39.5833 38.75 36.75 38.75C33.75 38.75 31.2917 37.7917 29.375 35.875C27.4583 33.9583 26.5 31.5 26.5 28.5C26.5 27 26.6667 25.5417 27 24.125C27.4167 22.7083 28.1667 20.5833 29.25 17.75L35.875 0H45.875L40.875 19.125Z" fill="white"/>
<path d="M811.375 268.625C809.542 267.875 808.125 266.667 807.125 265C806.042 263.417 805.5 261.5 805.5 259.25C805.5 256.25 806.458 253.792 808.375 251.875C810.292 249.958 812.667 249 815.5 249C818.5 249 820.958 249.958 822.875 251.875C824.792 253.792 825.75 256.25 825.75 259.25C825.75 260.75 825.583 262.208 825.25 263.625C824.833 265.042 824.083 267.167 823 270L816.375 287.75H806.375L811.375 268.625ZM784.875 268.625C783.042 267.875 781.625 266.667 780.625 265C779.542 263.417 779 261.5 779 259.25C779 256.25 779.958 253.792 781.875 251.875C783.792 249.958 786.167 249 789 249C792 249 794.458 249.958 796.375 251.875C798.292 253.792 799.25 256.25 799.25 259.25C799.25 260.75 799.083 262.208 798.75 263.625C798.333 265.042 797.583 267.167 796.5 270L789.875 287.75H779.875L784.875 268.625Z" fill="white"/>
</svg>
